<?xml version="1.0" encoding="UTF-8"?>
<svg id="Layer_2" data-name="Layer 2" xmlns="http://www.w3.org/2000/svg" viewBox="0 0 1380.15 666.01">
  <defs>
    <style>
      .cls-1 {
        fill: #801323;
      }

      .cls-1, .cls-2, .cls-3, .cls-4, .cls-5, .cls-6 {
        stroke-width: 0px;
      }

      .cls-2 {
        fill: #b0334c;
      }

      .cls-3 {
        fill: #f37021;
      }

      .cls-4 {
        fill: #4c131d;
      }

      .cls-5 {
        fill: #97243a;
      }

      .cls-6 {
        fill: #fff1d7;
      }
    </style>
  </defs>
  <g id="refrence">
    <g>
      <path class="cls-1" d="m1264.48,121.51c17.8,20.34,15.32,50.57-4.24,67.06-7.08,5.96-14.62,11.38-21.75,17.29-10.06,8.35-11.17,10.95-11.33,24.32-10.32-5.04-11.63-13.59-8.1-22.29,2.7-6.66,7.16-13.36,12.57-18.02,20.66-17.77,37.21-37.2,32.85-68.37Z"/>
      <path class="cls-6" d="m202.1,358.91c-10.95,0-22.43-2.74-34.44-8.21-12.01-5.48-25.17-12.85-39.49-22.12-16.43-10.74-34.12-20.22-53.08-28.44-16.01-6.95-33.6-10.43-52.76-10.43l-10.43.32c-.63,0-1.69-1.05-3.16-3.16-4.64-6.32-6.95-12.64-6.95-18.96,0-2.53.74-4.95,2.21-7.27,10.11-14.53,23.11-30.06,39.02-46.6,15.9-16.53,32.7-33.33,50.39-50.39,23.17-22.32,44.6-44.18,64.3-65.56,19.69-21.38,33.65-41.12,41.86-59.24-8.22,1.9-19.27,5.58-33.17,11.06-17.69,7.16-35.7,12.85-54.03,17.06-6.11,1.48-11.69,2.21-16.75,2.21-22.75,0-34.12-11.48-34.12-34.44,0-9.48,1.68-21.06,5.05-34.75,12.43,4.64,28.44,6.95,48.02,6.95,16.43,0,39.18-1.05,68.24-3.16,22.32-2.1,43.28-3.16,62.87-3.16,5.89,0,16.32.21,31.28.63,14.95.42,27.28,5.69,36.97,15.8-22.96,42.76-51.71,80.2-86.25,112.32-34.55,32.12-68.88,60.82-103,86.1-17.69,13.48-33.91,26.33-48.66,38.55,17.48,1.48,34.12,4.9,49.92,10.27,15.8,5.37,31.17,11.33,46.13,17.85,16.85,7.58,33.49,13.9,49.92,18.96,12.01,3.58,24.22,5.37,36.65,5.37,4.63,0,9.27-.21,13.9-.63,0,7.79-5.8,17.27-17.38,28.44-15.38,14.32-30.01,22.32-43.92,24.01-2.95.42-6,.63-9.16.63Z"/>
      <path class="cls-6" d="m448.77,297.31h-1.26c-25.49-2.74-39.6-19.16-42.34-49.29-8.22,12.85-17.38,22.75-27.49,29.7-10.11,6.95-20.01,10.43-29.7,10.43-17.06,0-30.44-5.26-40.13-15.8-14.33-15.17-21.49-37.07-21.49-65.72,0-8.21,1.16-19.11,3.48-32.7,2.32-13.59,7.79-28.48,16.43-44.71,8.63-16.22,19.8-29.54,33.49-39.97,13.69-10.43,29.49-15.64,47.39-15.64,27.59,0,43.39,12.64,47.39,37.91l6.32-14.22c4.63-9.48,12.43-15.37,23.38-17.69,5.26-1.05,10.63-1.58,16.11-1.58,5.89,0,13.37,1,22.43,3,9.05,2,17.48,5.64,25.28,10.9-6.32,8.64-13.69,21.91-22.12,39.81-8.43,17.91-16.33,36.86-23.7,56.87-7.38,20.01-12.53,37.28-15.48,51.82-1.06,5.69-1.58,10.32-1.58,13.9,0,6.74,1.9,10.11,5.69,10.11,12.21,0,28.33-17.06,48.34-51.18,9.27-15.59,15.06-25.8,17.38-30.65,1.05-1.68,1.9-2.53,2.53-2.53,1.05,0,1.58,1.16,1.58,3.48-1.48,17.27-7.22,34.75-17.22,52.45-10.01,17.69-21.85,32.34-35.54,43.92-13.69,11.59-26.75,17.38-39.18,17.38Zm-83.73-32.86c7.16-.63,14.8-8.06,22.91-22.27,8.11-14.22,15.11-30.8,21.01-49.76,6.11-20.22,9.16-37.6,9.16-52.13,0-12.21-3.79-18.53-11.37-18.96-6.95,1.06-13.74,6.37-20.38,15.95-6.63,9.59-12.64,21.43-18.01,35.54-5.37,14.11-9.43,28.12-12.16,42.02-1.9,10.11-2.84,19.06-2.84,26.86,0,2.95.32,7.48.95,13.59.63,6.11,4.21,9.16,10.74,9.16Z"/>
      <path class="cls-6" d="m575.06,297.31h-1.26c-17.91-1.9-29.91-9.9-36.02-24.01-4.63-10.74-6.95-23.17-6.95-37.28,0-5.05.69-14.11,2.05-27.17,1.37-13.06,5.42-30.54,12.16-52.45,6.74-21.9,13.9-41.6,21.49-59.08,4.84-9.48,12.74-15.37,23.7-17.69,5.26-1.05,10.63-1.58,16.11-1.58,5.89,0,13.43,1,22.59,3,9.16,2,17.64,5.64,25.43,10.9-6.32,8.64-13.74,21.91-22.27,39.81-8.53,17.91-16.43,36.86-23.7,56.87-7.27,20.01-12.38,37.28-15.32,51.82-1.06,5.69-1.58,10.32-1.58,13.9,0,6.74,1.9,10.11,5.69,10.11,6.32,0,13.59-4.53,21.8-13.59,11.37-13.06,25.06-34.01,41.07-62.87,2.53-5.26,4.31-7.9,5.37-7.9.84,0,1.37,1.16,1.58,3.48-1.48,17.27-7.27,34.75-17.38,52.45-10.11,17.69-21.96,32.34-35.54,43.92-13.59,11.59-26.59,17.38-39.02,17.38Zm64.77-230.96c-3.58,0-7.58-.32-12.01-.95-23.17-2.53-34.75-10.63-34.75-24.33,0-9.05,3.58-18.32,10.74-27.8,5.89-7.79,15.8-11.69,29.7-11.69h4.11c16.22,1.9,27.17,5.16,32.86,9.79,4.63,3.58,6.95,8.43,6.95,14.53l-.32,4.42c-1.06,15.59-7.16,26.33-18.32,32.23-4.64,2.53-10.95,3.79-18.96,3.79Z"/>
      <path class="cls-6" d="m793.61,303.31c-2.53,0-5.05-.32-7.58-.95-10.74-4.42-18.75-10.53-24.01-18.32-12.43,5.9-25.7,8.85-39.81,8.85-17.06,0-30.44-5.26-40.13-15.8-14.33-15.59-21.49-37.91-21.49-66.98,0-8.63,1.16-19.8,3.48-33.49,2.32-13.69,7.79-28.86,16.43-45.5,8.63-16.64,19.75-30.22,33.33-40.76,13.59-10.53,29.43-16.11,47.55-16.75,22.95.21,40.23,7.16,51.81,20.85,13.06,15.8,19.59,36.55,19.59,62.24,0,17.27-3.43,35.7-10.27,55.29-6.85,19.59-17.85,37.07-33.02,52.45,4.21,1.69,8.95,2.53,14.22,2.53s11.06-.84,17.38-2.53v3.16c0,8.85-2.95,17.27-8.85,25.28-5.05,6.95-11.27,10.43-18.64,10.43Zm-54.03-37.28c4.42,0,8.85-1.47,13.27-4.42-1.06-5.69-1.58-11.27-1.58-16.74,0-4.21.47-9.64,1.42-16.27.95-6.63,2.37-12.9,4.27-18.8l2.53-8.85v5.06c0,13.9,3.16,27.07,9.48,39.49,10.32-13.9,18.43-30.65,24.33-50.23,5.05-16.01,7.58-30.44,7.58-43.29l-.32-7.58c-1.26-14.32-7.58-21.48-18.96-21.48h-.63c-6.95.84-13.74,6.11-20.38,15.8-6.63,9.69-12.64,21.54-18.01,35.54-5.37,14.01-9.32,28.07-11.85,42.18-1.9,10.11-2.84,18.96-2.84,26.54,0,2.95.37,7.53,1.11,13.74.74,6.22,4.27,9.32,10.58,9.32Z"/>
      <path class="cls-6" d="m1072.94,303.31s-33.17-.15-51.31-6c-18.14-5.85-39.6-19.16-42.34-49.29-8.22,12.85-17.38,22.75-27.49,29.7-10.11,6.95-20.01,10.43-29.7,10.43-17.06,0-30.44-5.26-40.13-15.8-14.33-15.17-21.49-37.07-21.49-65.72,0-8.21,1.16-19.11,3.48-32.7,2.32-13.59,7.79-28.48,16.43-44.71,8.63-16.22,19.8-29.54,33.49-39.97,13.69-10.43,29.49-15.64,47.39-15.64,27.59,0,43.39,12.64,47.39,37.91l6.32-14.22c4.63-9.48,12.43-15.37,23.38-17.69,5.26-1.05,10.63-1.58,16.11-1.58,5.89,0,13.37,1,22.43,3,9.05,2,17.48,5.64,25.28,10.9-6.32,8.64-13.69,21.91-22.12,39.81-8.43,17.91-16.33,36.86-23.7,56.87-7.38,20.01-12.53,37.28-15.48,51.82-1.06,5.69-1.58,10.32-1.58,13.9,0,6.74,1.73,35.08,33.62,48.97Zm-133.77-38.86c7.16-.63,14.8-8.06,22.91-22.27,8.11-14.22,15.11-30.8,21.01-49.76,6.11-20.22,9.16-37.6,9.16-52.13,0-12.21-3.79-18.53-11.37-18.96-6.95,1.06-13.74,6.37-20.38,15.95-6.63,9.59-12.64,21.43-18.01,35.54-5.37,14.11-9.43,28.12-12.16,42.02-1.9,10.11-2.84,19.06-2.84,26.86,0,2.95.32,7.48.95,13.59.63,6.11,4.21,9.16,10.74,9.16Z"/>
      <path class="cls-1" d="m1226.12,429.08c-1.76.13-3.52.16-5.28.1-39.54-1.38-74.75-5.01-107.11-20.08-16.11-7.5-31.51-18.37-44.25-30.79-17.58-17.14-18.08-42.57-4.21-62.87,1.61-2.35,7.78-4.42,9.81-3.21,45.87,27.39,97.01,29.91,148.08,30.3,41.81.32,83.4-4.15,122.68-20.6,1.64-.69,3.28-1.4,4.89-2.16,14.96-7,18.08-5.73,24.09,9.88,6.95,18.04,1.66,38.21-14.38,52.3-30.04,26.38-66.52,37.98-104.99,44.4-10.71,1.79-21.65,2.18-29.33,2.73Z"/>
      <path class="cls-5" d="m1072.97,263.58c-4.74,16.56-2.37,26.46,13.16,34.06,17.72,8.67,36.74,15.98,56,19.93,59.19,12.14,118.51,11.01,177.05-4.86,11.56-3.14,22.85-8.26,33.36-14.1,16.89-9.37,19.84-18.61,13.8-36.02,16.63,9.69,18.49,25.35,4.22,38.05-15.47,13.77-34.74,19.36-54.29,23.82-70.94,16.21-141.68,16-211.42-5.72-13.8-4.3-27.08-12.88-38.28-22.26-11.72-9.82-8.18-24.33,6.39-32.91Z"/>
      <path class="cls-1" d="m1205.35,223.06c-10.76-13.6-10.56-27.03.43-41.13,5.9-7.57,12.86-14.29,19.16-21.56,19.85-22.93,20.26-34.42,2.24-58.27-9.86-13.05-10.12-21.78.08-34.44-1.96,15.59,5.6,25.75,14.66,35.76,17.64,19.49,18.62,42.47,2.25,63.11-7.46,9.4-16.86,17.31-25.66,25.59-8.92,8.4-15.74,17.48-13.14,30.93Z"/>
      <path class="cls-1" d="m1217.95,39.29c-2.85,10.33-7.68,21.94-8.95,33.93-1.52,14.36,4.93,26.78,14.78,37.71,12.49,13.87,10.46,29.66-5.03,39.25,6.94-15.9-.22-27.31-9.37-38.64-17.58-21.74-12.12-59.01,8.58-72.24Z"/>
      <ellipse class="cls-3" cx="1219.86" cy="280.23" rx="138.14" ry="37.32"/>
      <path class="cls-1" d="m0,615.13c66.75-64.3,144.56-116.37,225.81-160.61,204-110.5,441.53-160.2,672.45-133.51,46.02,5.34,91.71,13.22,136.63,24.09-45.51-8.08-91.28-14.24-137.23-17.81-57.28-4.47-115.11-5.13-172.46-1.46-195.28,11.57-386.38,72.62-555.34,170.59-59.67,34.82-117.49,73.48-169.84,118.7h0Z"/>
      <path class="cls-1" d="m4.39,666.01c64.74-66.32,140.92-120.75,220.77-167.47,200.51-116.71,436.4-173.68,668.03-154.09,46.16,3.93,92.07,10.4,137.31,19.89-45.74-6.68-91.68-11.44-137.72-13.59-57.39-2.71-115.21-1.6-172.43,3.84-194.83,17.56-383.97,84.44-549.84,187.56-58.58,36.63-115.18,77.05-166.12,123.86h0Z"/>
      <path class="cls-1" d="m1131.61,280.23s41.68,29,130.69,14.08c0,0-103.93,31.53-130.69-14.08Z"/>
      <path class="cls-1" d="m1327.64,280.23s-41.68-29-130.69-14.08c0,0,103.93-31.53,130.69,14.08Z"/>
      <path class="cls-4" d="m1066.78,313.6s25.74,99.86,205.17,109.61c0,0-108.25,23.42-177.8-25.09-68.53-38.99-27.37-84.53-27.37-84.53Z"/>
      <ellipse class="cls-2" cx="1317.24" cy="386.23" rx="37.04" ry="9.11" transform="translate(2.18 779.82) rotate(-33)"/>
    </g>
  </g>
</svg>